<svg xmlns="http://www.w3.org/2000/svg" viewBox="0 0 640 392" role="img" aria-label="Digits preview">
<rect width="640" height="392" rx="28" fill="#f1f6ed"/>
<rect x="20" y="20" width="600" height="352" rx="24" fill="#ffffff" stroke="#d8e4d2"/>
<text x="42" y="62" font-family="Manrope, sans-serif" font-size="22" font-weight="800" fill="#0d0f0d">Digits Preview</text>
<text x="42" y="88" font-family="Manrope, sans-serif" font-size="14" fill="#5b6458">8x8 grayscale samples for the hardest AutoGrad route.</text>
<rect x="36" y="110" width="92" height="76" rx="16" fill="#f7faf5" stroke="#dce7d7"/>
<rect x="58" y="126" width="5" height="5" rx="1.2" fill="#22df69" opacity="0.51"/>
<rect x="64" y="126" width="5" height="5" rx="1.2" fill="#0e1110" opacity="0.59"/>
<rect x="70" y="126" width="5" height="5" rx="1.2" fill="#22df69" opacity="0.35"/>
<rect x="76" y="126" width="5" height="5" rx="1.2" fill="#0e1110" opacity="0.43"/>
<rect x="52" y="132" width="5" height="5" rx="1.2" fill="#22df69" opacity="0.51"/>
<rect x="58" y="132" width="5" height="5" rx="1.2" fill="#0e1110" opacity="0.59"/>
<rect x="76" y="132" width="5" height="5" rx="1.2" fill="#22df69" opacity="0.51"/>
<rect x="82" y="132" width="5" height="5" rx="1.2" fill="#0e1110" opacity="0.59"/>
<rect x="46" y="138" width="5" height="5" rx="1.2" fill="#22df69" opacity="0.51"/>
<rect x="52" y="138" width="5" height="5" rx="1.2" fill="#0e1110" opacity="0.59"/>
<rect x="82" y="138" width="5" height="5" rx="1.2" fill="#22df69" opacity="0.35"/>
<rect x="88" y="138" width="5" height="5" rx="1.2" fill="#0e1110" opacity="0.43"/>
<rect x="46" y="144" width="5" height="5" rx="1.2" fill="#0e1110" opacity="0.59"/>
<rect x="52" y="144" width="5" height="5" rx="1.2" fill="#22df69" opacity="0.35"/>
<rect x="82" y="144" width="5" height="5" rx="1.2" fill="#0e1110" opacity="0.43"/>
<rect x="88" y="144" width="5" height="5" rx="1.2" fill="#22df69" opacity="0.51"/>
<rect x="46" y="150" width="5" height="5" rx="1.2" fill="#22df69" opacity="0.35"/>
<rect x="52" y="150" width="5" height="5" rx="1.2" fill="#0e1110" opacity="0.43"/>
<rect x="82" y="150" width="5" height="5" rx="1.2" fill="#22df69" opacity="0.51"/>
<rect x="88" y="150" width="5" height="5" rx="1.2" fill="#0e1110" opacity="0.59"/>
<rect x="46" y="156" width="5" height="5" rx="1.2" fill="#0e1110" opacity="0.43"/>
<rect x="52" y="156" width="5" height="5" rx="1.2" fill="#22df69" opacity="0.51"/>
<rect x="82" y="156" width="5" height="5" rx="1.2" fill="#0e1110" opacity="0.59"/>
<rect x="88" y="156" width="5" height="5" rx="1.2" fill="#22df69" opacity="0.35"/>
<rect x="52" y="162" width="5" height="5" rx="1.2" fill="#0e1110" opacity="0.59"/>
<rect x="58" y="162" width="5" height="5" rx="1.2" fill="#22df69" opacity="0.35"/>
<rect x="76" y="162" width="5" height="5" rx="1.2" fill="#0e1110" opacity="0.59"/>
<rect x="82" y="162" width="5" height="5" rx="1.2" fill="#22df69" opacity="0.35"/>
<rect x="58" y="168" width="5" height="5" rx="1.2" fill="#0e1110" opacity="0.43"/>
<rect x="64" y="168" width="5" height="5" rx="1.2" fill="#22df69" opacity="0.51"/>
<rect x="70" y="168" width="5" height="5" rx="1.2" fill="#0e1110" opacity="0.59"/>
<rect x="76" y="168" width="5" height="5" rx="1.2" fill="#22df69" opacity="0.35"/>
<text x="46" y="188" font-family="IBM Plex Mono, monospace" font-size="12" fill="#4f5c50">sample 1</text>
<rect x="176" y="110" width="92" height="76" rx="16" fill="#f7faf5" stroke="#dce7d7"/>
<rect x="204" y="126" width="5" height="5" rx="1.2" fill="#0e1110" opacity="0.59"/>
<rect x="210" y="126" width="5" height="5" rx="1.2" fill="#22df69" opacity="0.35"/>
<rect x="198" y="132" width="5" height="5" rx="1.2" fill="#0e1110" opacity="0.59"/>
<rect x="204" y="132" width="5" height="5" rx="1.2" fill="#22df69" opacity="0.35"/>
<rect x="210" y="132" width="5" height="5" rx="1.2" fill="#0e1110" opacity="0.43"/>
<rect x="204" y="138" width="5" height="5" rx="1.2" fill="#0e1110" opacity="0.43"/>
<rect x="210" y="138" width="5" height="5" rx="1.2" fill="#22df69" opacity="0.51"/>
<rect x="204" y="144" width="5" height="5" rx="1.2" fill="#22df69" opacity="0.51"/>
<rect x="210" y="144" width="5" height="5" rx="1.2" fill="#0e1110" opacity="0.59"/>
<rect x="204" y="150" width="5" height="5" rx="1.2" fill="#0e1110" opacity="0.59"/>
<rect x="210" y="150" width="5" height="5" rx="1.2" fill="#22df69" opacity="0.35"/>
<rect x="204" y="156" width="5" height="5" rx="1.2" fill="#22df69" opacity="0.35"/>
<rect x="210" y="156" width="5" height="5" rx="1.2" fill="#0e1110" opacity="0.43"/>
<rect x="198" y="162" width="5" height="5" rx="1.2" fill="#22df69" opacity="0.35"/>
<rect x="204" y="162" width="5" height="5" rx="1.2" fill="#0e1110" opacity="0.43"/>
<rect x="210" y="162" width="5" height="5" rx="1.2" fill="#22df69" opacity="0.51"/>
<rect x="216" y="162" width="5" height="5" rx="1.2" fill="#0e1110" opacity="0.59"/>
<rect x="198" y="168" width="5" height="5" rx="1.2" fill="#0e1110" opacity="0.43"/>
<rect x="204" y="168" width="5" height="5" rx="1.2" fill="#22df69" opacity="0.51"/>
<rect x="210" y="168" width="5" height="5" rx="1.2" fill="#0e1110" opacity="0.59"/>
<rect x="216" y="168" width="5" height="5" rx="1.2" fill="#22df69" opacity="0.35"/>
<text x="186" y="188" font-family="IBM Plex Mono, monospace" font-size="12" fill="#4f5c50">sample 2</text>
<rect x="316" y="110" width="92" height="76" rx="16" fill="#f7faf5" stroke="#dce7d7"/>
<rect x="338" y="126" width="5" height="5" rx="1.2" fill="#22df69" opacity="0.51"/>
<rect x="344" y="126" width="5" height="5" rx="1.2" fill="#0e1110" opacity="0.59"/>
<rect x="350" y="126" width="5" height="5" rx="1.2" fill="#22df69" opacity="0.35"/>
<rect x="356" y="126" width="5" height="5" rx="1.2" fill="#0e1110" opacity="0.43"/>
<rect x="332" y="132" width="5" height="5" rx="1.2" fill="#22df69" opacity="0.51"/>
<rect x="338" y="132" width="5" height="5" rx="1.2" fill="#0e1110" opacity="0.59"/>
<rect x="356" y="132" width="5" height="5" rx="1.2" fill="#22df69" opacity="0.51"/>
<rect x="362" y="132" width="5" height="5" rx="1.2" fill="#0e1110" opacity="0.59"/>
<rect x="356" y="138" width="5" height="5" rx="1.2" fill="#0e1110" opacity="0.59"/>
<rect x="362" y="138" width="5" height="5" rx="1.2" fill="#22df69" opacity="0.35"/>
<rect x="350" y="144" width="5" height="5" rx="1.2" fill="#0e1110" opacity="0.59"/>
<rect x="356" y="144" width="5" height="5" rx="1.2" fill="#22df69" opacity="0.35"/>
<rect x="344" y="150" width="5" height="5" rx="1.2" fill="#0e1110" opacity="0.59"/>
<rect x="350" y="150" width="5" height="5" rx="1.2" fill="#22df69" opacity="0.35"/>
<rect x="338" y="156" width="5" height="5" rx="1.2" fill="#0e1110" opacity="0.59"/>
<rect x="344" y="156" width="5" height="5" rx="1.2" fill="#22df69" opacity="0.35"/>
<rect x="332" y="162" width="5" height="5" rx="1.2" fill="#0e1110" opacity="0.59"/>
<rect x="338" y="162" width="5" height="5" rx="1.2" fill="#22df69" opacity="0.35"/>
<rect x="332" y="168" width="5" height="5" rx="1.2" fill="#22df69" opacity="0.35"/>
<rect x="338" y="168" width="5" height="5" rx="1.2" fill="#0e1110" opacity="0.43"/>
<rect x="344" y="168" width="5" height="5" rx="1.2" fill="#22df69" opacity="0.51"/>
<rect x="350" y="168" width="5" height="5" rx="1.2" fill="#0e1110" opacity="0.59"/>
<rect x="356" y="168" width="5" height="5" rx="1.2" fill="#22df69" opacity="0.35"/>
<rect x="362" y="168" width="5" height="5" rx="1.2" fill="#0e1110" opacity="0.43"/>
<text x="326" y="188" font-family="IBM Plex Mono, monospace" font-size="12" fill="#4f5c50">sample 3</text>
<rect x="456" y="110" width="92" height="76" rx="16" fill="#f7faf5" stroke="#dce7d7"/>
<rect x="478" y="126" width="5" height="5" rx="1.2" fill="#22df69" opacity="0.51"/>
<rect x="484" y="126" width="5" height="5" rx="1.2" fill="#0e1110" opacity="0.59"/>
<rect x="490" y="126" width="5" height="5" rx="1.2" fill="#22df69" opacity="0.35"/>
<rect x="496" y="126" width="5" height="5" rx="1.2" fill="#0e1110" opacity="0.43"/>
<rect x="472" y="132" width="5" height="5" rx="1.2" fill="#22df69" opacity="0.51"/>
<rect x="478" y="132" width="5" height="5" rx="1.2" fill="#0e1110" opacity="0.59"/>
<rect x="496" y="132" width="5" height="5" rx="1.2" fill="#22df69" opacity="0.51"/>
<rect x="502" y="132" width="5" height="5" rx="1.2" fill="#0e1110" opacity="0.59"/>
<rect x="496" y="138" width="5" height="5" rx="1.2" fill="#0e1110" opacity="0.59"/>
<rect x="502" y="138" width="5" height="5" rx="1.2" fill="#22df69" opacity="0.35"/>
<rect x="484" y="144" width="5" height="5" rx="1.2" fill="#22df69" opacity="0.51"/>
<rect x="490" y="144" width="5" height="5" rx="1.2" fill="#0e1110" opacity="0.59"/>
<rect x="496" y="144" width="5" height="5" rx="1.2" fill="#22df69" opacity="0.35"/>
<rect x="496" y="150" width="5" height="5" rx="1.2" fill="#0e1110" opacity="0.43"/>
<rect x="502" y="150" width="5" height="5" rx="1.2" fill="#22df69" opacity="0.51"/>
<rect x="496" y="156" width="5" height="5" rx="1.2" fill="#22df69" opacity="0.51"/>
<rect x="502" y="156" width="5" height="5" rx="1.2" fill="#0e1110" opacity="0.59"/>
<rect x="472" y="162" width="5" height="5" rx="1.2" fill="#0e1110" opacity="0.59"/>
<rect x="478" y="162" width="5" height="5" rx="1.2" fill="#22df69" opacity="0.35"/>
<rect x="496" y="162" width="5" height="5" rx="1.2" fill="#0e1110" opacity="0.59"/>
<rect x="502" y="162" width="5" height="5" rx="1.2" fill="#22df69" opacity="0.35"/>
<rect x="478" y="168" width="5" height="5" rx="1.2" fill="#0e1110" opacity="0.43"/>
<rect x="484" y="168" width="5" height="5" rx="1.2" fill="#22df69" opacity="0.51"/>
<rect x="490" y="168" width="5" height="5" rx="1.2" fill="#0e1110" opacity="0.59"/>
<rect x="496" y="168" width="5" height="5" rx="1.2" fill="#22df69" opacity="0.35"/>
<text x="466" y="188" font-family="IBM Plex Mono, monospace" font-size="12" fill="#4f5c50">sample 4</text>
<rect x="36" y="202" width="92" height="76" rx="16" fill="#f7faf5" stroke="#dce7d7"/>
<rect x="70" y="218" width="5" height="5" rx="1.2" fill="#22df69" opacity="0.35"/>
<rect x="76" y="218" width="5" height="5" rx="1.2" fill="#0e1110" opacity="0.43"/>
<rect x="64" y="224" width="5" height="5" rx="1.2" fill="#22df69" opacity="0.35"/>
<rect x="70" y="224" width="5" height="5" rx="1.2" fill="#0e1110" opacity="0.43"/>
<rect x="76" y="224" width="5" height="5" rx="1.2" fill="#22df69" opacity="0.51"/>
<rect x="58" y="230" width="5" height="5" rx="1.2" fill="#22df69" opacity="0.35"/>
<rect x="70" y="230" width="5" height="5" rx="1.2" fill="#22df69" opacity="0.51"/>
<rect x="76" y="230" width="5" height="5" rx="1.2" fill="#0e1110" opacity="0.59"/>
<rect x="52" y="236" width="5" height="5" rx="1.2" fill="#22df69" opacity="0.35"/>
<rect x="70" y="236" width="5" height="5" rx="1.2" fill="#0e1110" opacity="0.59"/>
<rect x="76" y="236" width="5" height="5" rx="1.2" fill="#22df69" opacity="0.35"/>
<rect x="46" y="242" width="5" height="5" rx="1.2" fill="#22df69" opacity="0.35"/>
<rect x="52" y="242" width="5" height="5" rx="1.2" fill="#0e1110" opacity="0.43"/>
<rect x="58" y="242" width="5" height="5" rx="1.2" fill="#22df69" opacity="0.51"/>
<rect x="64" y="242" width="5" height="5" rx="1.2" fill="#0e1110" opacity="0.59"/>
<rect x="70" y="242" width="5" height="5" rx="1.2" fill="#22df69" opacity="0.35"/>
<rect x="76" y="242" width="5" height="5" rx="1.2" fill="#0e1110" opacity="0.43"/>
<rect x="82" y="242" width="5" height="5" rx="1.2" fill="#22df69" opacity="0.51"/>
<rect x="70" y="248" width="5" height="5" rx="1.2" fill="#0e1110" opacity="0.43"/>
<rect x="76" y="248" width="5" height="5" rx="1.2" fill="#22df69" opacity="0.51"/>
<rect x="70" y="254" width="5" height="5" rx="1.2" fill="#22df69" opacity="0.51"/>
<rect x="76" y="254" width="5" height="5" rx="1.2" fill="#0e1110" opacity="0.59"/>
<rect x="64" y="260" width="5" height="5" rx="1.2" fill="#22df69" opacity="0.51"/>
<rect x="70" y="260" width="5" height="5" rx="1.2" fill="#0e1110" opacity="0.59"/>
<rect x="76" y="260" width="5" height="5" rx="1.2" fill="#22df69" opacity="0.35"/>
<rect x="82" y="260" width="5" height="5" rx="1.2" fill="#0e1110" opacity="0.43"/>
<text x="46" y="280" font-family="IBM Plex Mono, monospace" font-size="12" fill="#4f5c50">sample 5</text>
<rect x="176" y="202" width="92" height="76" rx="16" fill="#f7faf5" stroke="#dce7d7"/>
<rect x="192" y="218" width="5" height="5" rx="1.2" fill="#0e1110" opacity="0.43"/>
<rect x="198" y="218" width="5" height="5" rx="1.2" fill="#22df69" opacity="0.51"/>
<rect x="204" y="218" width="5" height="5" rx="1.2" fill="#0e1110" opacity="0.59"/>
<rect x="210" y="218" width="5" height="5" rx="1.2" fill="#22df69" opacity="0.35"/>
<rect x="216" y="218" width="5" height="5" rx="1.2" fill="#0e1110" opacity="0.43"/>
<rect x="222" y="218" width="5" height="5" rx="1.2" fill="#22df69" opacity="0.51"/>
<rect x="192" y="224" width="5" height="5" rx="1.2" fill="#22df69" opacity="0.51"/>
<rect x="198" y="224" width="5" height="5" rx="1.2" fill="#0e1110" opacity="0.59"/>
<rect x="192" y="230" width="5" height="5" rx="1.2" fill="#0e1110" opacity="0.59"/>
<rect x="198" y="230" width="5" height="5" rx="1.2" fill="#22df69" opacity="0.35"/>
<rect x="192" y="236" width="5" height="5" rx="1.2" fill="#22df69" opacity="0.35"/>
<rect x="198" y="236" width="5" height="5" rx="1.2" fill="#0e1110" opacity="0.43"/>
<rect x="204" y="236" width="5" height="5" rx="1.2" fill="#22df69" opacity="0.51"/>
<rect x="210" y="236" width="5" height="5" rx="1.2" fill="#0e1110" opacity="0.59"/>
<rect x="216" y="236" width="5" height="5" rx="1.2" fill="#22df69" opacity="0.35"/>
<rect x="216" y="242" width="5" height="5" rx="1.2" fill="#0e1110" opacity="0.43"/>
<rect x="222" y="242" width="5" height="5" rx="1.2" fill="#22df69" opacity="0.51"/>
<rect x="216" y="248" width="5" height="5" rx="1.2" fill="#22df69" opacity="0.51"/>
<rect x="222" y="248" width="5" height="5" rx="1.2" fill="#0e1110" opacity="0.59"/>
<rect x="192" y="254" width="5" height="5" rx="1.2" fill="#0e1110" opacity="0.59"/>
<rect x="198" y="254" width="5" height="5" rx="1.2" fill="#22df69" opacity="0.35"/>
<rect x="216" y="254" width="5" height="5" rx="1.2" fill="#0e1110" opacity="0.59"/>
<rect x="222" y="254" width="5" height="5" rx="1.2" fill="#22df69" opacity="0.35"/>
<rect x="198" y="260" width="5" height="5" rx="1.2" fill="#0e1110" opacity="0.43"/>
<rect x="204" y="260" width="5" height="5" rx="1.2" fill="#22df69" opacity="0.51"/>
<rect x="210" y="260" width="5" height="5" rx="1.2" fill="#0e1110" opacity="0.59"/>
<rect x="216" y="260" width="5" height="5" rx="1.2" fill="#22df69" opacity="0.35"/>
<text x="186" y="280" font-family="IBM Plex Mono, monospace" font-size="12" fill="#4f5c50">sample 6</text>
<rect x="316" y="202" width="92" height="76" rx="16" fill="#f7faf5" stroke="#dce7d7"/>
<rect x="338" y="218" width="5" height="5" rx="1.2" fill="#22df69" opacity="0.51"/>
<rect x="344" y="218" width="5" height="5" rx="1.2" fill="#0e1110" opacity="0.59"/>
<rect x="350" y="218" width="5" height="5" rx="1.2" fill="#22df69" opacity="0.35"/>
<rect x="356" y="218" width="5" height="5" rx="1.2" fill="#0e1110" opacity="0.43"/>
<rect x="332" y="224" width="5" height="5" rx="1.2" fill="#22df69" opacity="0.51"/>
<rect x="338" y="224" width="5" height="5" rx="1.2" fill="#0e1110" opacity="0.59"/>
<rect x="356" y="224" width="5" height="5" rx="1.2" fill="#22df69" opacity="0.51"/>
<rect x="362" y="224" width="5" height="5" rx="1.2" fill="#0e1110" opacity="0.59"/>
<rect x="332" y="230" width="5" height="5" rx="1.2" fill="#0e1110" opacity="0.59"/>
<rect x="338" y="230" width="5" height="5" rx="1.2" fill="#22df69" opacity="0.35"/>
<rect x="332" y="236" width="5" height="5" rx="1.2" fill="#22df69" opacity="0.35"/>
<rect x="338" y="236" width="5" height="5" rx="1.2" fill="#0e1110" opacity="0.43"/>
<rect x="344" y="236" width="5" height="5" rx="1.2" fill="#22df69" opacity="0.51"/>
<rect x="350" y="236" width="5" height="5" rx="1.2" fill="#0e1110" opacity="0.59"/>
<rect x="356" y="236" width="5" height="5" rx="1.2" fill="#22df69" opacity="0.35"/>
<rect x="332" y="242" width="5" height="5" rx="1.2" fill="#0e1110" opacity="0.43"/>
<rect x="338" y="242" width="5" height="5" rx="1.2" fill="#22df69" opacity="0.51"/>
<rect x="356" y="242" width="5" height="5" rx="1.2" fill="#0e1110" opacity="0.43"/>
<rect x="362" y="242" width="5" height="5" rx="1.2" fill="#22df69" opacity="0.51"/>
<rect x="332" y="248" width="5" height="5" rx="1.2" fill="#22df69" opacity="0.51"/>
<rect x="338" y="248" width="5" height="5" rx="1.2" fill="#0e1110" opacity="0.59"/>
<rect x="356" y="248" width="5" height="5" rx="1.2" fill="#22df69" opacity="0.51"/>
<rect x="362" y="248" width="5" height="5" rx="1.2" fill="#0e1110" opacity="0.59"/>
<rect x="332" y="254" width="5" height="5" rx="1.2" fill="#0e1110" opacity="0.59"/>
<rect x="338" y="254" width="5" height="5" rx="1.2" fill="#22df69" opacity="0.35"/>
<rect x="356" y="254" width="5" height="5" rx="1.2" fill="#0e1110" opacity="0.59"/>
<rect x="362" y="254" width="5" height="5" rx="1.2" fill="#22df69" opacity="0.35"/>
<rect x="338" y="260" width="5" height="5" rx="1.2" fill="#0e1110" opacity="0.43"/>
<rect x="344" y="260" width="5" height="5" rx="1.2" fill="#22df69" opacity="0.51"/>
<rect x="350" y="260" width="5" height="5" rx="1.2" fill="#0e1110" opacity="0.59"/>
<rect x="356" y="260" width="5" height="5" rx="1.2" fill="#22df69" opacity="0.35"/>
<text x="326" y="280" font-family="IBM Plex Mono, monospace" font-size="12" fill="#4f5c50">sample 7</text>
<rect x="456" y="202" width="92" height="76" rx="16" fill="#f7faf5" stroke="#dce7d7"/>
<rect x="472" y="218" width="5" height="5" rx="1.2" fill="#0e1110" opacity="0.43"/>
<rect x="478" y="218" width="5" height="5" rx="1.2" fill="#22df69" opacity="0.51"/>
<rect x="484" y="218" width="5" height="5" rx="1.2" fill="#0e1110" opacity="0.59"/>
<rect x="490" y="218" width="5" height="5" rx="1.2" fill="#22df69" opacity="0.35"/>
<rect x="496" y="218" width="5" height="5" rx="1.2" fill="#0e1110" opacity="0.43"/>
<rect x="502" y="218" width="5" height="5" rx="1.2" fill="#22df69" opacity="0.51"/>
<rect x="496" y="224" width="5" height="5" rx="1.2" fill="#22df69" opacity="0.51"/>
<rect x="502" y="224" width="5" height="5" rx="1.2" fill="#0e1110" opacity="0.59"/>
<rect x="490" y="230" width="5" height="5" rx="1.2" fill="#22df69" opacity="0.51"/>
<rect x="496" y="230" width="5" height="5" rx="1.2" fill="#0e1110" opacity="0.59"/>
<rect x="484" y="236" width="5" height="5" rx="1.2" fill="#22df69" opacity="0.51"/>
<rect x="490" y="236" width="5" height="5" rx="1.2" fill="#0e1110" opacity="0.59"/>
<rect x="478" y="242" width="5" height="5" rx="1.2" fill="#22df69" opacity="0.51"/>
<rect x="484" y="242" width="5" height="5" rx="1.2" fill="#0e1110" opacity="0.59"/>
<rect x="478" y="248" width="5" height="5" rx="1.2" fill="#0e1110" opacity="0.59"/>
<rect x="484" y="248" width="5" height="5" rx="1.2" fill="#22df69" opacity="0.35"/>
<rect x="478" y="254" width="5" height="5" rx="1.2" fill="#22df69" opacity="0.35"/>
<rect x="484" y="254" width="5" height="5" rx="1.2" fill="#0e1110" opacity="0.43"/>
<rect x="478" y="260" width="5" height="5" rx="1.2" fill="#0e1110" opacity="0.43"/>
<rect x="484" y="260" width="5" height="5" rx="1.2" fill="#22df69" opacity="0.51"/>
<text x="466" y="280" font-family="IBM Plex Mono, monospace" font-size="12" fill="#4f5c50">sample 8</text>
<rect x="36" y="294" width="92" height="76" rx="16" fill="#f7faf5" stroke="#dce7d7"/>
<rect x="58" y="310" width="5" height="5" rx="1.2" fill="#22df69" opacity="0.51"/>
<rect x="64" y="310" width="5" height="5" rx="1.2" fill="#0e1110" opacity="0.59"/>
<rect x="70" y="310" width="5" height="5" rx="1.2" fill="#22df69" opacity="0.35"/>
<rect x="76" y="310" width="5" height="5" rx="1.2" fill="#0e1110" opacity="0.43"/>
<rect x="52" y="316" width="5" height="5" rx="1.2" fill="#22df69" opacity="0.51"/>
<rect x="58" y="316" width="5" height="5" rx="1.2" fill="#0e1110" opacity="0.59"/>
<rect x="76" y="316" width="5" height="5" rx="1.2" fill="#22df69" opacity="0.51"/>
<rect x="82" y="316" width="5" height="5" rx="1.2" fill="#0e1110" opacity="0.59"/>
<rect x="52" y="322" width="5" height="5" rx="1.2" fill="#0e1110" opacity="0.59"/>
<rect x="58" y="322" width="5" height="5" rx="1.2" fill="#22df69" opacity="0.35"/>
<rect x="76" y="322" width="5" height="5" rx="1.2" fill="#0e1110" opacity="0.59"/>
<rect x="82" y="322" width="5" height="5" rx="1.2" fill="#22df69" opacity="0.35"/>
<rect x="58" y="328" width="5" height="5" rx="1.2" fill="#0e1110" opacity="0.43"/>
<rect x="64" y="328" width="5" height="5" rx="1.2" fill="#22df69" opacity="0.51"/>
<rect x="70" y="328" width="5" height="5" rx="1.2" fill="#0e1110" opacity="0.59"/>
<rect x="76" y="328" width="5" height="5" rx="1.2" fill="#22df69" opacity="0.35"/>
<rect x="52" y="334" width="5" height="5" rx="1.2" fill="#0e1110" opacity="0.43"/>
<rect x="58" y="334" width="5" height="5" rx="1.2" fill="#22df69" opacity="0.51"/>
<rect x="76" y="334" width="5" height="5" rx="1.2" fill="#0e1110" opacity="0.43"/>
<rect x="82" y="334" width="5" height="5" rx="1.2" fill="#22df69" opacity="0.51"/>
<rect x="52" y="340" width="5" height="5" rx="1.2" fill="#22df69" opacity="0.51"/>
<rect x="58" y="340" width="5" height="5" rx="1.2" fill="#0e1110" opacity="0.59"/>
<rect x="76" y="340" width="5" height="5" rx="1.2" fill="#22df69" opacity="0.51"/>
<rect x="82" y="340" width="5" height="5" rx="1.2" fill="#0e1110" opacity="0.59"/>
<rect x="52" y="346" width="5" height="5" rx="1.2" fill="#0e1110" opacity="0.59"/>
<rect x="58" y="346" width="5" height="5" rx="1.2" fill="#22df69" opacity="0.35"/>
<rect x="76" y="346" width="5" height="5" rx="1.2" fill="#0e1110" opacity="0.59"/>
<rect x="82" y="346" width="5" height="5" rx="1.2" fill="#22df69" opacity="0.35"/>
<rect x="58" y="352" width="5" height="5" rx="1.2" fill="#0e1110" opacity="0.43"/>
<rect x="64" y="352" width="5" height="5" rx="1.2" fill="#22df69" opacity="0.51"/>
<rect x="70" y="352" width="5" height="5" rx="1.2" fill="#0e1110" opacity="0.59"/>
<rect x="76" y="352" width="5" height="5" rx="1.2" fill="#22df69" opacity="0.35"/>
<text x="46" y="372" font-family="IBM Plex Mono, monospace" font-size="12" fill="#4f5c50">sample 9</text>
<rect x="176" y="294" width="92" height="76" rx="16" fill="#f7faf5" stroke="#dce7d7"/>
<rect x="198" y="310" width="5" height="5" rx="1.2" fill="#22df69" opacity="0.51"/>
<rect x="204" y="310" width="5" height="5" rx="1.2" fill="#0e1110" opacity="0.59"/>
<rect x="210" y="310" width="5" height="5" rx="1.2" fill="#22df69" opacity="0.35"/>
<rect x="216" y="310" width="5" height="5" rx="1.2" fill="#0e1110" opacity="0.43"/>
<rect x="192" y="316" width="5" height="5" rx="1.2" fill="#22df69" opacity="0.51"/>
<rect x="198" y="316" width="5" height="5" rx="1.2" fill="#0e1110" opacity="0.59"/>
<rect x="216" y="316" width="5" height="5" rx="1.2" fill="#22df69" opacity="0.51"/>
<rect x="222" y="316" width="5" height="5" rx="1.2" fill="#0e1110" opacity="0.59"/>
<rect x="192" y="322" width="5" height="5" rx="1.2" fill="#0e1110" opacity="0.59"/>
<rect x="198" y="322" width="5" height="5" rx="1.2" fill="#22df69" opacity="0.35"/>
<rect x="216" y="322" width="5" height="5" rx="1.2" fill="#0e1110" opacity="0.59"/>
<rect x="222" y="322" width="5" height="5" rx="1.2" fill="#22df69" opacity="0.35"/>
<rect x="198" y="328" width="5" height="5" rx="1.2" fill="#0e1110" opacity="0.43"/>
<rect x="204" y="328" width="5" height="5" rx="1.2" fill="#22df69" opacity="0.51"/>
<rect x="210" y="328" width="5" height="5" rx="1.2" fill="#0e1110" opacity="0.59"/>
<rect x="216" y="328" width="5" height="5" rx="1.2" fill="#22df69" opacity="0.35"/>
<rect x="222" y="328" width="5" height="5" rx="1.2" fill="#0e1110" opacity="0.43"/>
<rect x="216" y="334" width="5" height="5" rx="1.2" fill="#0e1110" opacity="0.43"/>
<rect x="222" y="334" width="5" height="5" rx="1.2" fill="#22df69" opacity="0.51"/>
<rect x="216" y="340" width="5" height="5" rx="1.2" fill="#22df69" opacity="0.51"/>
<rect x="222" y="340" width="5" height="5" rx="1.2" fill="#0e1110" opacity="0.59"/>
<rect x="192" y="346" width="5" height="5" rx="1.2" fill="#0e1110" opacity="0.59"/>
<rect x="198" y="346" width="5" height="5" rx="1.2" fill="#22df69" opacity="0.35"/>
<rect x="216" y="346" width="5" height="5" rx="1.2" fill="#0e1110" opacity="0.59"/>
<rect x="222" y="346" width="5" height="5" rx="1.2" fill="#22df69" opacity="0.35"/>
<rect x="198" y="352" width="5" height="5" rx="1.2" fill="#0e1110" opacity="0.43"/>
<rect x="204" y="352" width="5" height="5" rx="1.2" fill="#22df69" opacity="0.51"/>
<rect x="210" y="352" width="5" height="5" rx="1.2" fill="#0e1110" opacity="0.59"/>
<rect x="216" y="352" width="5" height="5" rx="1.2" fill="#22df69" opacity="0.35"/>
<text x="186" y="372" font-family="IBM Plex Mono, monospace" font-size="12" fill="#4f5c50">sample 10</text>
<rect x="316" y="294" width="92" height="76" rx="16" fill="#f7faf5" stroke="#dce7d7"/>
<rect x="338" y="310" width="5" height="5" rx="1.2" fill="#22df69" opacity="0.51"/>
<rect x="344" y="310" width="5" height="5" rx="1.2" fill="#0e1110" opacity="0.59"/>
<rect x="350" y="310" width="5" height="5" rx="1.2" fill="#22df69" opacity="0.35"/>
<rect x="356" y="310" width="5" height="5" rx="1.2" fill="#0e1110" opacity="0.43"/>
<rect x="332" y="316" width="5" height="5" rx="1.2" fill="#22df69" opacity="0.51"/>
<rect x="338" y="316" width="5" height="5" rx="1.2" fill="#0e1110" opacity="0.59"/>
<rect x="356" y="316" width="5" height="5" rx="1.2" fill="#22df69" opacity="0.51"/>
<rect x="362" y="316" width="5" height="5" rx="1.2" fill="#0e1110" opacity="0.59"/>
<rect x="356" y="322" width="5" height="5" rx="1.2" fill="#0e1110" opacity="0.59"/>
<rect x="362" y="322" width="5" height="5" rx="1.2" fill="#22df69" opacity="0.35"/>
<rect x="344" y="328" width="5" height="5" rx="1.2" fill="#22df69" opacity="0.51"/>
<rect x="350" y="328" width="5" height="5" rx="1.2" fill="#0e1110" opacity="0.59"/>
<rect x="356" y="328" width="5" height="5" rx="1.2" fill="#22df69" opacity="0.35"/>
<rect x="356" y="334" width="5" height="5" rx="1.2" fill="#0e1110" opacity="0.43"/>
<rect x="362" y="334" width="5" height="5" rx="1.2" fill="#22df69" opacity="0.51"/>
<rect x="356" y="340" width="5" height="5" rx="1.2" fill="#22df69" opacity="0.51"/>
<rect x="362" y="340" width="5" height="5" rx="1.2" fill="#0e1110" opacity="0.59"/>
<rect x="332" y="346" width="5" height="5" rx="1.2" fill="#0e1110" opacity="0.59"/>
<rect x="338" y="346" width="5" height="5" rx="1.2" fill="#22df69" opacity="0.35"/>
<rect x="356" y="346" width="5" height="5" rx="1.2" fill="#0e1110" opacity="0.59"/>
<rect x="362" y="346" width="5" height="5" rx="1.2" fill="#22df69" opacity="0.35"/>
<rect x="338" y="352" width="5" height="5" rx="1.2" fill="#0e1110" opacity="0.43"/>
<rect x="344" y="352" width="5" height="5" rx="1.2" fill="#22df69" opacity="0.51"/>
<rect x="350" y="352" width="5" height="5" rx="1.2" fill="#0e1110" opacity="0.59"/>
<rect x="356" y="352" width="5" height="5" rx="1.2" fill="#22df69" opacity="0.35"/>
<text x="326" y="372" font-family="IBM Plex Mono, monospace" font-size="12" fill="#4f5c50">sample 11</text>
<rect x="456" y="294" width="92" height="76" rx="16" fill="#f7faf5" stroke="#dce7d7"/>
<rect x="478" y="310" width="5" height="5" rx="1.2" fill="#22df69" opacity="0.51"/>
<rect x="484" y="310" width="5" height="5" rx="1.2" fill="#0e1110" opacity="0.59"/>
<rect x="490" y="310" width="5" height="5" rx="1.2" fill="#22df69" opacity="0.35"/>
<rect x="496" y="310" width="5" height="5" rx="1.2" fill="#0e1110" opacity="0.43"/>
<rect x="472" y="316" width="5" height="5" rx="1.2" fill="#22df69" opacity="0.51"/>
<rect x="478" y="316" width="5" height="5" rx="1.2" fill="#0e1110" opacity="0.59"/>
<rect x="496" y="316" width="5" height="5" rx="1.2" fill="#22df69" opacity="0.51"/>
<rect x="502" y="316" width="5" height="5" rx="1.2" fill="#0e1110" opacity="0.59"/>
<rect x="472" y="322" width="5" height="5" rx="1.2" fill="#0e1110" opacity="0.59"/>
<rect x="478" y="322" width="5" height="5" rx="1.2" fill="#22df69" opacity="0.35"/>
<rect x="496" y="322" width="5" height="5" rx="1.2" fill="#0e1110" opacity="0.59"/>
<rect x="502" y="322" width="5" height="5" rx="1.2" fill="#22df69" opacity="0.35"/>
<rect x="478" y="328" width="5" height="5" rx="1.2" fill="#0e1110" opacity="0.43"/>
<rect x="484" y="328" width="5" height="5" rx="1.2" fill="#22df69" opacity="0.51"/>
<rect x="490" y="328" width="5" height="5" rx="1.2" fill="#0e1110" opacity="0.59"/>
<rect x="496" y="328" width="5" height="5" rx="1.2" fill="#22df69" opacity="0.35"/>
<rect x="472" y="334" width="5" height="5" rx="1.2" fill="#0e1110" opacity="0.43"/>
<rect x="478" y="334" width="5" height="5" rx="1.2" fill="#22df69" opacity="0.51"/>
<rect x="496" y="334" width="5" height="5" rx="1.2" fill="#0e1110" opacity="0.43"/>
<rect x="502" y="334" width="5" height="5" rx="1.2" fill="#22df69" opacity="0.51"/>
<rect x="472" y="340" width="5" height="5" rx="1.2" fill="#22df69" opacity="0.51"/>
<rect x="478" y="340" width="5" height="5" rx="1.2" fill="#0e1110" opacity="0.59"/>
<rect x="496" y="340" width="5" height="5" rx="1.2" fill="#22df69" opacity="0.51"/>
<rect x="502" y="340" width="5" height="5" rx="1.2" fill="#0e1110" opacity="0.59"/>
<rect x="472" y="346" width="5" height="5" rx="1.2" fill="#0e1110" opacity="0.59"/>
<rect x="478" y="346" width="5" height="5" rx="1.2" fill="#22df69" opacity="0.35"/>
<rect x="496" y="346" width="5" height="5" rx="1.2" fill="#0e1110" opacity="0.59"/>
<rect x="502" y="346" width="5" height="5" rx="1.2" fill="#22df69" opacity="0.35"/>
<rect x="478" y="352" width="5" height="5" rx="1.2" fill="#0e1110" opacity="0.43"/>
<rect x="484" y="352" width="5" height="5" rx="1.2" fill="#22df69" opacity="0.51"/>
<rect x="490" y="352" width="5" height="5" rx="1.2" fill="#0e1110" opacity="0.59"/>
<rect x="496" y="352" width="5" height="5" rx="1.2" fill="#22df69" opacity="0.35"/>
<text x="466" y="372" font-family="IBM Plex Mono, monospace" font-size="12" fill="#4f5c50">sample 12</text>
</svg>
