<svg xmlns="http://www.w3.org/2000/svg" viewBox="0 0 640 360" role="img" aria-label="Digits preview">
<rect width="640" height="360" rx="28" fill="#f1f6ed"/>
<rect x="20" y="20" width="600" height="320" rx="24" fill="#ffffff" stroke="#d8e4d2"/>
<text x="42" y="58" font-family="Manrope, sans-serif" font-size="22" font-weight="800" fill="#0d0f0d">Digits Preview</text>
<text x="42" y="84" font-family="Manrope, sans-serif" font-size="14" fill="#5b6458">Compact 8x8 samples for the hardest AutoGrad route.</text>
<rect x="78" y="128" width="118" height="74" rx="16" fill="#f7faf5" stroke="#dce7d7"/>
<rect x="111" y="141" width="3.2" height="3.2" rx="0.8" fill="#22df69" opacity="0.52"/>
<rect x="115" y="141" width="3.2" height="3.2" rx="0.8" fill="#0f1110" opacity="0.60"/>
<rect x="119" y="141" width="3.2" height="3.2" rx="0.8" fill="#22df69" opacity="0.36"/>
<rect x="123" y="141" width="3.2" height="3.2" rx="0.8" fill="#0f1110" opacity="0.44"/>
<rect x="107" y="145" width="3.2" height="3.2" rx="0.8" fill="#22df69" opacity="0.52"/>
<rect x="111" y="145" width="3.2" height="3.2" rx="0.8" fill="#0f1110" opacity="0.60"/>
<rect x="123" y="145" width="3.2" height="3.2" rx="0.8" fill="#22df69" opacity="0.52"/>
<rect x="127" y="145" width="3.2" height="3.2" rx="0.8" fill="#0f1110" opacity="0.60"/>
<rect x="103" y="149" width="3.2" height="3.2" rx="0.8" fill="#22df69" opacity="0.52"/>
<rect x="107" y="149" width="3.2" height="3.2" rx="0.8" fill="#0f1110" opacity="0.60"/>
<rect x="127" y="149" width="3.2" height="3.2" rx="0.8" fill="#22df69" opacity="0.36"/>
<rect x="131" y="149" width="3.2" height="3.2" rx="0.8" fill="#0f1110" opacity="0.44"/>
<rect x="103" y="153" width="3.2" height="3.2" rx="0.8" fill="#0f1110" opacity="0.60"/>
<rect x="107" y="153" width="3.2" height="3.2" rx="0.8" fill="#22df69" opacity="0.36"/>
<rect x="127" y="153" width="3.2" height="3.2" rx="0.8" fill="#0f1110" opacity="0.44"/>
<rect x="131" y="153" width="3.2" height="3.2" rx="0.8" fill="#22df69" opacity="0.52"/>
<rect x="103" y="157" width="3.2" height="3.2" rx="0.8" fill="#22df69" opacity="0.36"/>
<rect x="107" y="157" width="3.2" height="3.2" rx="0.8" fill="#0f1110" opacity="0.44"/>
<rect x="127" y="157" width="3.2" height="3.2" rx="0.8" fill="#22df69" opacity="0.52"/>
<rect x="131" y="157" width="3.2" height="3.2" rx="0.8" fill="#0f1110" opacity="0.60"/>
<rect x="103" y="161" width="3.2" height="3.2" rx="0.8" fill="#0f1110" opacity="0.44"/>
<rect x="107" y="161" width="3.2" height="3.2" rx="0.8" fill="#22df69" opacity="0.52"/>
<rect x="127" y="161" width="3.2" height="3.2" rx="0.8" fill="#0f1110" opacity="0.60"/>
<rect x="131" y="161" width="3.2" height="3.2" rx="0.8" fill="#22df69" opacity="0.36"/>
<rect x="107" y="165" width="3.2" height="3.2" rx="0.8" fill="#0f1110" opacity="0.60"/>
<rect x="111" y="165" width="3.2" height="3.2" rx="0.8" fill="#22df69" opacity="0.36"/>
<rect x="123" y="165" width="3.2" height="3.2" rx="0.8" fill="#0f1110" opacity="0.60"/>
<rect x="127" y="165" width="3.2" height="3.2" rx="0.8" fill="#22df69" opacity="0.36"/>
<rect x="111" y="169" width="3.2" height="3.2" rx="0.8" fill="#0f1110" opacity="0.44"/>
<rect x="115" y="169" width="3.2" height="3.2" rx="0.8" fill="#22df69" opacity="0.52"/>
<rect x="119" y="169" width="3.2" height="3.2" rx="0.8" fill="#0f1110" opacity="0.60"/>
<rect x="123" y="169" width="3.2" height="3.2" rx="0.8" fill="#22df69" opacity="0.36"/>
<text x="98" y="188" font-family="IBM Plex Mono, monospace" font-size="11" fill="#4f5c50">digit 0</text>
<rect x="234" y="128" width="118" height="74" rx="16" fill="#f7faf5" stroke="#dce7d7"/>
<rect x="271" y="141" width="3.2" height="3.2" rx="0.8" fill="#0f1110" opacity="0.60"/>
<rect x="275" y="141" width="3.2" height="3.2" rx="0.8" fill="#22df69" opacity="0.36"/>
<rect x="267" y="145" width="3.2" height="3.2" rx="0.8" fill="#0f1110" opacity="0.60"/>
<rect x="271" y="145" width="3.2" height="3.2" rx="0.8" fill="#22df69" opacity="0.36"/>
<rect x="275" y="145" width="3.2" height="3.2" rx="0.8" fill="#0f1110" opacity="0.44"/>
<rect x="271" y="149" width="3.2" height="3.2" rx="0.8" fill="#0f1110" opacity="0.44"/>
<rect x="275" y="149" width="3.2" height="3.2" rx="0.8" fill="#22df69" opacity="0.52"/>
<rect x="271" y="153" width="3.2" height="3.2" rx="0.8" fill="#22df69" opacity="0.52"/>
<rect x="275" y="153" width="3.2" height="3.2" rx="0.8" fill="#0f1110" opacity="0.60"/>
<rect x="271" y="157" width="3.2" height="3.2" rx="0.8" fill="#0f1110" opacity="0.60"/>
<rect x="275" y="157" width="3.2" height="3.2" rx="0.8" fill="#22df69" opacity="0.36"/>
<rect x="271" y="161" width="3.2" height="3.2" rx="0.8" fill="#22df69" opacity="0.36"/>
<rect x="275" y="161" width="3.2" height="3.2" rx="0.8" fill="#0f1110" opacity="0.44"/>
<rect x="267" y="165" width="3.2" height="3.2" rx="0.8" fill="#22df69" opacity="0.36"/>
<rect x="271" y="165" width="3.2" height="3.2" rx="0.8" fill="#0f1110" opacity="0.44"/>
<rect x="275" y="165" width="3.2" height="3.2" rx="0.8" fill="#22df69" opacity="0.52"/>
<rect x="279" y="165" width="3.2" height="3.2" rx="0.8" fill="#0f1110" opacity="0.60"/>
<rect x="267" y="169" width="3.2" height="3.2" rx="0.8" fill="#0f1110" opacity="0.44"/>
<rect x="271" y="169" width="3.2" height="3.2" rx="0.8" fill="#22df69" opacity="0.52"/>
<rect x="275" y="169" width="3.2" height="3.2" rx="0.8" fill="#0f1110" opacity="0.60"/>
<rect x="279" y="169" width="3.2" height="3.2" rx="0.8" fill="#22df69" opacity="0.36"/>
<text x="254" y="188" font-family="IBM Plex Mono, monospace" font-size="11" fill="#4f5c50">digit 1</text>
<rect x="390" y="128" width="118" height="74" rx="16" fill="#f7faf5" stroke="#dce7d7"/>
<rect x="423" y="141" width="3.2" height="3.2" rx="0.8" fill="#22df69" opacity="0.52"/>
<rect x="427" y="141" width="3.2" height="3.2" rx="0.8" fill="#0f1110" opacity="0.60"/>
<rect x="431" y="141" width="3.2" height="3.2" rx="0.8" fill="#22df69" opacity="0.36"/>
<rect x="435" y="141" width="3.2" height="3.2" rx="0.8" fill="#0f1110" opacity="0.44"/>
<rect x="419" y="145" width="3.2" height="3.2" rx="0.8" fill="#22df69" opacity="0.52"/>
<rect x="423" y="145" width="3.2" height="3.2" rx="0.8" fill="#0f1110" opacity="0.60"/>
<rect x="435" y="145" width="3.2" height="3.2" rx="0.8" fill="#22df69" opacity="0.52"/>
<rect x="439" y="145" width="3.2" height="3.2" rx="0.8" fill="#0f1110" opacity="0.60"/>
<rect x="435" y="149" width="3.2" height="3.2" rx="0.8" fill="#0f1110" opacity="0.60"/>
<rect x="439" y="149" width="3.2" height="3.2" rx="0.8" fill="#22df69" opacity="0.36"/>
<rect x="431" y="153" width="3.2" height="3.2" rx="0.8" fill="#0f1110" opacity="0.60"/>
<rect x="435" y="153" width="3.2" height="3.2" rx="0.8" fill="#22df69" opacity="0.36"/>
<rect x="427" y="157" width="3.2" height="3.2" rx="0.8" fill="#0f1110" opacity="0.60"/>
<rect x="431" y="157" width="3.2" height="3.2" rx="0.8" fill="#22df69" opacity="0.36"/>
<rect x="423" y="161" width="3.2" height="3.2" rx="0.8" fill="#0f1110" opacity="0.60"/>
<rect x="427" y="161" width="3.2" height="3.2" rx="0.8" fill="#22df69" opacity="0.36"/>
<rect x="419" y="165" width="3.2" height="3.2" rx="0.8" fill="#0f1110" opacity="0.60"/>
<rect x="423" y="165" width="3.2" height="3.2" rx="0.8" fill="#22df69" opacity="0.36"/>
<rect x="419" y="169" width="3.2" height="3.2" rx="0.8" fill="#22df69" opacity="0.36"/>
<rect x="423" y="169" width="3.2" height="3.2" rx="0.8" fill="#0f1110" opacity="0.44"/>
<rect x="427" y="169" width="3.2" height="3.2" rx="0.8" fill="#22df69" opacity="0.52"/>
<rect x="431" y="169" width="3.2" height="3.2" rx="0.8" fill="#0f1110" opacity="0.60"/>
<rect x="435" y="169" width="3.2" height="3.2" rx="0.8" fill="#22df69" opacity="0.36"/>
<rect x="439" y="169" width="3.2" height="3.2" rx="0.8" fill="#0f1110" opacity="0.44"/>
<text x="410" y="188" font-family="IBM Plex Mono, monospace" font-size="11" fill="#4f5c50">digit 2</text>
<rect x="78" y="218" width="118" height="74" rx="16" fill="#f7faf5" stroke="#dce7d7"/>
<rect x="111" y="231" width="3.2" height="3.2" rx="0.8" fill="#22df69" opacity="0.52"/>
<rect x="115" y="231" width="3.2" height="3.2" rx="0.8" fill="#0f1110" opacity="0.60"/>
<rect x="119" y="231" width="3.2" height="3.2" rx="0.8" fill="#22df69" opacity="0.36"/>
<rect x="123" y="231" width="3.2" height="3.2" rx="0.8" fill="#0f1110" opacity="0.44"/>
<rect x="107" y="235" width="3.2" height="3.2" rx="0.8" fill="#22df69" opacity="0.52"/>
<rect x="111" y="235" width="3.2" height="3.2" rx="0.8" fill="#0f1110" opacity="0.60"/>
<rect x="123" y="235" width="3.2" height="3.2" rx="0.8" fill="#22df69" opacity="0.52"/>
<rect x="127" y="235" width="3.2" height="3.2" rx="0.8" fill="#0f1110" opacity="0.60"/>
<rect x="123" y="239" width="3.2" height="3.2" rx="0.8" fill="#0f1110" opacity="0.60"/>
<rect x="127" y="239" width="3.2" height="3.2" rx="0.8" fill="#22df69" opacity="0.36"/>
<rect x="115" y="243" width="3.2" height="3.2" rx="0.8" fill="#22df69" opacity="0.52"/>
<rect x="119" y="243" width="3.2" height="3.2" rx="0.8" fill="#0f1110" opacity="0.60"/>
<rect x="123" y="243" width="3.2" height="3.2" rx="0.8" fill="#22df69" opacity="0.36"/>
<rect x="123" y="247" width="3.2" height="3.2" rx="0.8" fill="#0f1110" opacity="0.44"/>
<rect x="127" y="247" width="3.2" height="3.2" rx="0.8" fill="#22df69" opacity="0.52"/>
<rect x="123" y="251" width="3.2" height="3.2" rx="0.8" fill="#22df69" opacity="0.52"/>
<rect x="127" y="251" width="3.2" height="3.2" rx="0.8" fill="#0f1110" opacity="0.60"/>
<rect x="107" y="255" width="3.2" height="3.2" rx="0.8" fill="#0f1110" opacity="0.60"/>
<rect x="111" y="255" width="3.2" height="3.2" rx="0.8" fill="#22df69" opacity="0.36"/>
<rect x="123" y="255" width="3.2" height="3.2" rx="0.8" fill="#0f1110" opacity="0.60"/>
<rect x="127" y="255" width="3.2" height="3.2" rx="0.8" fill="#22df69" opacity="0.36"/>
<rect x="111" y="259" width="3.2" height="3.2" rx="0.8" fill="#0f1110" opacity="0.44"/>
<rect x="115" y="259" width="3.2" height="3.2" rx="0.8" fill="#22df69" opacity="0.52"/>
<rect x="119" y="259" width="3.2" height="3.2" rx="0.8" fill="#0f1110" opacity="0.60"/>
<rect x="123" y="259" width="3.2" height="3.2" rx="0.8" fill="#22df69" opacity="0.36"/>
<text x="98" y="278" font-family="IBM Plex Mono, monospace" font-size="11" fill="#4f5c50">digit 3</text>
<rect x="234" y="218" width="118" height="74" rx="16" fill="#f7faf5" stroke="#dce7d7"/>
<rect x="275" y="231" width="3.2" height="3.2" rx="0.8" fill="#22df69" opacity="0.36"/>
<rect x="279" y="231" width="3.2" height="3.2" rx="0.8" fill="#0f1110" opacity="0.44"/>
<rect x="271" y="235" width="3.2" height="3.2" rx="0.8" fill="#22df69" opacity="0.36"/>
<rect x="275" y="235" width="3.2" height="3.2" rx="0.8" fill="#0f1110" opacity="0.44"/>
<rect x="279" y="235" width="3.2" height="3.2" rx="0.8" fill="#22df69" opacity="0.52"/>
<rect x="267" y="239" width="3.2" height="3.2" rx="0.8" fill="#22df69" opacity="0.36"/>
<rect x="275" y="239" width="3.2" height="3.2" rx="0.8" fill="#22df69" opacity="0.52"/>
<rect x="279" y="239" width="3.2" height="3.2" rx="0.8" fill="#0f1110" opacity="0.60"/>
<rect x="263" y="243" width="3.2" height="3.2" rx="0.8" fill="#22df69" opacity="0.36"/>
<rect x="275" y="243" width="3.2" height="3.2" rx="0.8" fill="#0f1110" opacity="0.60"/>
<rect x="279" y="243" width="3.2" height="3.2" rx="0.8" fill="#22df69" opacity="0.36"/>
<rect x="259" y="247" width="3.2" height="3.2" rx="0.8" fill="#22df69" opacity="0.36"/>
<rect x="263" y="247" width="3.2" height="3.2" rx="0.8" fill="#0f1110" opacity="0.44"/>
<rect x="267" y="247" width="3.2" height="3.2" rx="0.8" fill="#22df69" opacity="0.52"/>
<rect x="271" y="247" width="3.2" height="3.2" rx="0.8" fill="#0f1110" opacity="0.60"/>
<rect x="275" y="247" width="3.2" height="3.2" rx="0.8" fill="#22df69" opacity="0.36"/>
<rect x="279" y="247" width="3.2" height="3.2" rx="0.8" fill="#0f1110" opacity="0.44"/>
<rect x="283" y="247" width="3.2" height="3.2" rx="0.8" fill="#22df69" opacity="0.52"/>
<rect x="275" y="251" width="3.2" height="3.2" rx="0.8" fill="#0f1110" opacity="0.44"/>
<rect x="279" y="251" width="3.2" height="3.2" rx="0.8" fill="#22df69" opacity="0.52"/>
<rect x="275" y="255" width="3.2" height="3.2" rx="0.8" fill="#22df69" opacity="0.52"/>
<rect x="279" y="255" width="3.2" height="3.2" rx="0.8" fill="#0f1110" opacity="0.60"/>
<rect x="271" y="259" width="3.2" height="3.2" rx="0.8" fill="#22df69" opacity="0.52"/>
<rect x="275" y="259" width="3.2" height="3.2" rx="0.8" fill="#0f1110" opacity="0.60"/>
<rect x="279" y="259" width="3.2" height="3.2" rx="0.8" fill="#22df69" opacity="0.36"/>
<rect x="283" y="259" width="3.2" height="3.2" rx="0.8" fill="#0f1110" opacity="0.44"/>
<text x="254" y="278" font-family="IBM Plex Mono, monospace" font-size="11" fill="#4f5c50">digit 4</text>
<rect x="390" y="218" width="118" height="74" rx="16" fill="#f7faf5" stroke="#dce7d7"/>
<rect x="419" y="231" width="3.2" height="3.2" rx="0.8" fill="#0f1110" opacity="0.44"/>
<rect x="423" y="231" width="3.2" height="3.2" rx="0.8" fill="#22df69" opacity="0.52"/>
<rect x="427" y="231" width="3.2" height="3.2" rx="0.8" fill="#0f1110" opacity="0.60"/>
<rect x="431" y="231" width="3.2" height="3.2" rx="0.8" fill="#22df69" opacity="0.36"/>
<rect x="435" y="231" width="3.2" height="3.2" rx="0.8" fill="#0f1110" opacity="0.44"/>
<rect x="439" y="231" width="3.2" height="3.2" rx="0.8" fill="#22df69" opacity="0.52"/>
<rect x="419" y="235" width="3.2" height="3.2" rx="0.8" fill="#22df69" opacity="0.52"/>
<rect x="423" y="235" width="3.2" height="3.2" rx="0.8" fill="#0f1110" opacity="0.60"/>
<rect x="419" y="239" width="3.2" height="3.2" rx="0.8" fill="#0f1110" opacity="0.60"/>
<rect x="423" y="239" width="3.2" height="3.2" rx="0.8" fill="#22df69" opacity="0.36"/>
<rect x="419" y="243" width="3.2" height="3.2" rx="0.8" fill="#22df69" opacity="0.36"/>
<rect x="423" y="243" width="3.2" height="3.2" rx="0.8" fill="#0f1110" opacity="0.44"/>
<rect x="427" y="243" width="3.2" height="3.2" rx="0.8" fill="#22df69" opacity="0.52"/>
<rect x="431" y="243" width="3.2" height="3.2" rx="0.8" fill="#0f1110" opacity="0.60"/>
<rect x="435" y="243" width="3.2" height="3.2" rx="0.8" fill="#22df69" opacity="0.36"/>
<rect x="435" y="247" width="3.2" height="3.2" rx="0.8" fill="#0f1110" opacity="0.44"/>
<rect x="439" y="247" width="3.2" height="3.2" rx="0.8" fill="#22df69" opacity="0.52"/>
<rect x="435" y="251" width="3.2" height="3.2" rx="0.8" fill="#22df69" opacity="0.52"/>
<rect x="439" y="251" width="3.2" height="3.2" rx="0.8" fill="#0f1110" opacity="0.60"/>
<rect x="419" y="255" width="3.2" height="3.2" rx="0.8" fill="#0f1110" opacity="0.60"/>
<rect x="423" y="255" width="3.2" height="3.2" rx="0.8" fill="#22df69" opacity="0.36"/>
<rect x="435" y="255" width="3.2" height="3.2" rx="0.8" fill="#0f1110" opacity="0.60"/>
<rect x="439" y="255" width="3.2" height="3.2" rx="0.8" fill="#22df69" opacity="0.36"/>
<rect x="423" y="259" width="3.2" height="3.2" rx="0.8" fill="#0f1110" opacity="0.44"/>
<rect x="427" y="259" width="3.2" height="3.2" rx="0.8" fill="#22df69" opacity="0.52"/>
<rect x="431" y="259" width="3.2" height="3.2" rx="0.8" fill="#0f1110" opacity="0.60"/>
<rect x="435" y="259" width="3.2" height="3.2" rx="0.8" fill="#22df69" opacity="0.36"/>
<text x="410" y="278" font-family="IBM Plex Mono, monospace" font-size="11" fill="#4f5c50">digit 5</text>
<rect x="78" y="308" width="118" height="74" rx="16" fill="#f7faf5" stroke="#dce7d7"/>
<rect x="111" y="321" width="3.2" height="3.2" rx="0.8" fill="#22df69" opacity="0.52"/>
<rect x="115" y="321" width="3.2" height="3.2" rx="0.8" fill="#0f1110" opacity="0.60"/>
<rect x="119" y="321" width="3.2" height="3.2" rx="0.8" fill="#22df69" opacity="0.36"/>
<rect x="123" y="321" width="3.2" height="3.2" rx="0.8" fill="#0f1110" opacity="0.44"/>
<rect x="107" y="325" width="3.2" height="3.2" rx="0.8" fill="#22df69" opacity="0.52"/>
<rect x="111" y="325" width="3.2" height="3.2" rx="0.8" fill="#0f1110" opacity="0.60"/>
<rect x="123" y="325" width="3.2" height="3.2" rx="0.8" fill="#22df69" opacity="0.52"/>
<rect x="127" y="325" width="3.2" height="3.2" rx="0.8" fill="#0f1110" opacity="0.60"/>
<rect x="107" y="329" width="3.2" height="3.2" rx="0.8" fill="#0f1110" opacity="0.60"/>
<rect x="111" y="329" width="3.2" height="3.2" rx="0.8" fill="#22df69" opacity="0.36"/>
<rect x="107" y="333" width="3.2" height="3.2" rx="0.8" fill="#22df69" opacity="0.36"/>
<rect x="111" y="333" width="3.2" height="3.2" rx="0.8" fill="#0f1110" opacity="0.44"/>
<rect x="115" y="333" width="3.2" height="3.2" rx="0.8" fill="#22df69" opacity="0.52"/>
<rect x="119" y="333" width="3.2" height="3.2" rx="0.8" fill="#0f1110" opacity="0.60"/>
<rect x="123" y="333" width="3.2" height="3.2" rx="0.8" fill="#22df69" opacity="0.36"/>
<rect x="107" y="337" width="3.2" height="3.2" rx="0.8" fill="#0f1110" opacity="0.44"/>
<rect x="111" y="337" width="3.2" height="3.2" rx="0.8" fill="#22df69" opacity="0.52"/>
<rect x="123" y="337" width="3.2" height="3.2" rx="0.8" fill="#0f1110" opacity="0.44"/>
<rect x="127" y="337" width="3.2" height="3.2" rx="0.8" fill="#22df69" opacity="0.52"/>
<rect x="107" y="341" width="3.2" height="3.2" rx="0.8" fill="#22df69" opacity="0.52"/>
<rect x="111" y="341" width="3.2" height="3.2" rx="0.8" fill="#0f1110" opacity="0.60"/>
<rect x="123" y="341" width="3.2" height="3.2" rx="0.8" fill="#22df69" opacity="0.52"/>
<rect x="127" y="341" width="3.2" height="3.2" rx="0.8" fill="#0f1110" opacity="0.60"/>
<rect x="107" y="345" width="3.2" height="3.2" rx="0.8" fill="#0f1110" opacity="0.60"/>
<rect x="111" y="345" width="3.2" height="3.2" rx="0.8" fill="#22df69" opacity="0.36"/>
<rect x="123" y="345" width="3.2" height="3.2" rx="0.8" fill="#0f1110" opacity="0.60"/>
<rect x="127" y="345" width="3.2" height="3.2" rx="0.8" fill="#22df69" opacity="0.36"/>
<rect x="111" y="349" width="3.2" height="3.2" rx="0.8" fill="#0f1110" opacity="0.44"/>
<rect x="115" y="349" width="3.2" height="3.2" rx="0.8" fill="#22df69" opacity="0.52"/>
<rect x="119" y="349" width="3.2" height="3.2" rx="0.8" fill="#0f1110" opacity="0.60"/>
<rect x="123" y="349" width="3.2" height="3.2" rx="0.8" fill="#22df69" opacity="0.36"/>
<text x="98" y="368" font-family="IBM Plex Mono, monospace" font-size="11" fill="#4f5c50">digit 6</text>
<rect x="234" y="308" width="118" height="74" rx="16" fill="#f7faf5" stroke="#dce7d7"/>
<rect x="263" y="321" width="3.2" height="3.2" rx="0.8" fill="#0f1110" opacity="0.44"/>
<rect x="267" y="321" width="3.2" height="3.2" rx="0.8" fill="#22df69" opacity="0.52"/>
<rect x="271" y="321" width="3.2" height="3.2" rx="0.8" fill="#0f1110" opacity="0.60"/>
<rect x="275" y="321" width="3.2" height="3.2" rx="0.8" fill="#22df69" opacity="0.36"/>
<rect x="279" y="321" width="3.2" height="3.2" rx="0.8" fill="#0f1110" opacity="0.44"/>
<rect x="283" y="321" width="3.2" height="3.2" rx="0.8" fill="#22df69" opacity="0.52"/>
<rect x="279" y="325" width="3.2" height="3.2" rx="0.8" fill="#22df69" opacity="0.52"/>
<rect x="283" y="325" width="3.2" height="3.2" rx="0.8" fill="#0f1110" opacity="0.60"/>
<rect x="275" y="329" width="3.2" height="3.2" rx="0.8" fill="#22df69" opacity="0.52"/>
<rect x="279" y="329" width="3.2" height="3.2" rx="0.8" fill="#0f1110" opacity="0.60"/>
<rect x="271" y="333" width="3.2" height="3.2" rx="0.8" fill="#22df69" opacity="0.52"/>
<rect x="275" y="333" width="3.2" height="3.2" rx="0.8" fill="#0f1110" opacity="0.60"/>
<rect x="267" y="337" width="3.2" height="3.2" rx="0.8" fill="#22df69" opacity="0.52"/>
<rect x="271" y="337" width="3.2" height="3.2" rx="0.8" fill="#0f1110" opacity="0.60"/>
<rect x="267" y="341" width="3.2" height="3.2" rx="0.8" fill="#0f1110" opacity="0.60"/>
<rect x="271" y="341" width="3.2" height="3.2" rx="0.8" fill="#22df69" opacity="0.36"/>
<rect x="267" y="345" width="3.2" height="3.2" rx="0.8" fill="#22df69" opacity="0.36"/>
<rect x="271" y="345" width="3.2" height="3.2" rx="0.8" fill="#0f1110" opacity="0.44"/>
<rect x="267" y="349" width="3.2" height="3.2" rx="0.8" fill="#0f1110" opacity="0.44"/>
<rect x="271" y="349" width="3.2" height="3.2" rx="0.8" fill="#22df69" opacity="0.52"/>
<text x="254" y="368" font-family="IBM Plex Mono, monospace" font-size="11" fill="#4f5c50">digit 7</text>
<rect x="390" y="308" width="118" height="74" rx="16" fill="#f7faf5" stroke="#dce7d7"/>
<rect x="423" y="321" width="3.2" height="3.2" rx="0.8" fill="#22df69" opacity="0.52"/>
<rect x="427" y="321" width="3.2" height="3.2" rx="0.8" fill="#0f1110" opacity="0.60"/>
<rect x="431" y="321" width="3.2" height="3.2" rx="0.8" fill="#22df69" opacity="0.36"/>
<rect x="435" y="321" width="3.2" height="3.2" rx="0.8" fill="#0f1110" opacity="0.44"/>
<rect x="419" y="325" width="3.2" height="3.2" rx="0.8" fill="#22df69" opacity="0.52"/>
<rect x="423" y="325" width="3.2" height="3.2" rx="0.8" fill="#0f1110" opacity="0.60"/>
<rect x="435" y="325" width="3.2" height="3.2" rx="0.8" fill="#22df69" opacity="0.52"/>
<rect x="439" y="325" width="3.2" height="3.2" rx="0.8" fill="#0f1110" opacity="0.60"/>
<rect x="419" y="329" width="3.2" height="3.2" rx="0.8" fill="#0f1110" opacity="0.60"/>
<rect x="423" y="329" width="3.2" height="3.2" rx="0.8" fill="#22df69" opacity="0.36"/>
<rect x="435" y="329" width="3.2" height="3.2" rx="0.8" fill="#0f1110" opacity="0.60"/>
<rect x="439" y="329" width="3.2" height="3.2" rx="0.8" fill="#22df69" opacity="0.36"/>
<rect x="423" y="333" width="3.2" height="3.2" rx="0.8" fill="#0f1110" opacity="0.44"/>
<rect x="427" y="333" width="3.2" height="3.2" rx="0.8" fill="#22df69" opacity="0.52"/>
<rect x="431" y="333" width="3.2" height="3.2" rx="0.8" fill="#0f1110" opacity="0.60"/>
<rect x="435" y="333" width="3.2" height="3.2" rx="0.8" fill="#22df69" opacity="0.36"/>
<rect x="419" y="337" width="3.2" height="3.2" rx="0.8" fill="#0f1110" opacity="0.44"/>
<rect x="423" y="337" width="3.2" height="3.2" rx="0.8" fill="#22df69" opacity="0.52"/>
<rect x="435" y="337" width="3.2" height="3.2" rx="0.8" fill="#0f1110" opacity="0.44"/>
<rect x="439" y="337" width="3.2" height="3.2" rx="0.8" fill="#22df69" opacity="0.52"/>
<rect x="419" y="341" width="3.2" height="3.2" rx="0.8" fill="#22df69" opacity="0.52"/>
<rect x="423" y="341" width="3.2" height="3.2" rx="0.8" fill="#0f1110" opacity="0.60"/>
<rect x="435" y="341" width="3.2" height="3.2" rx="0.8" fill="#22df69" opacity="0.52"/>
<rect x="439" y="341" width="3.2" height="3.2" rx="0.8" fill="#0f1110" opacity="0.60"/>
<rect x="419" y="345" width="3.2" height="3.2" rx="0.8" fill="#0f1110" opacity="0.60"/>
<rect x="423" y="345" width="3.2" height="3.2" rx="0.8" fill="#22df69" opacity="0.36"/>
<rect x="435" y="345" width="3.2" height="3.2" rx="0.8" fill="#0f1110" opacity="0.60"/>
<rect x="439" y="345" width="3.2" height="3.2" rx="0.8" fill="#22df69" opacity="0.36"/>
<rect x="423" y="349" width="3.2" height="3.2" rx="0.8" fill="#0f1110" opacity="0.44"/>
<rect x="427" y="349" width="3.2" height="3.2" rx="0.8" fill="#22df69" opacity="0.52"/>
<rect x="431" y="349" width="3.2" height="3.2" rx="0.8" fill="#0f1110" opacity="0.60"/>
<rect x="435" y="349" width="3.2" height="3.2" rx="0.8" fill="#22df69" opacity="0.36"/>
<text x="410" y="368" font-family="IBM Plex Mono, monospace" font-size="11" fill="#4f5c50">digit 8</text>
</svg>