<svg xmlns="http://www.w3.org/2000/svg" viewBox="0 0 640 360" role="img" aria-label="Learning enemy arena">
<rect width="640" height="360" rx="28" fill="#f1f6ed"/>
<rect x="20" y="20" width="600" height="320" rx="24" fill="#ffffff" stroke="#d8e4d2"/>
<text x="42" y="62" font-family="Manrope, sans-serif" font-size="22" font-weight="800" fill="#0d0f0d">Corridor Duel</text>
<text x="42" y="88" font-family="Manrope, sans-serif" font-size="14" fill="#5b6458">Enemy turret learns where the player dodges most often.</text>
<rect x="70" y="118" width="500" height="170" rx="22" fill="#0f1310"/>
<circle cx="120" cy="204" r="18" fill="#22df69" opacity="0.07"/>
<circle cx="220" cy="204" r="26" fill="#22df69" opacity="0.12"/>
<circle cx="320" cy="204" r="34" fill="#22df69" opacity="0.17"/>
<circle cx="420" cy="204" r="42" fill="#22df69" opacity="0.22"/>
<path d="M 120 220 C 180 120, 240 260, 320 170 S 460 120, 520 220" fill="none" stroke="#ffffff" stroke-width="3" stroke-dasharray="10 10" opacity="0.85"/>
<circle cx="148" cy="220" r="12" fill="#ffffff"/>
<circle cx="494" cy="158" r="16" fill="#22df69"/>
<path d="M494 158 L448 186" stroke="#22df69" stroke-width="4" stroke-linecap="round"/>
<rect x="448" y="300" width="12" height="12" rx="3" fill="#22df69" opacity="0.6"/>
<rect x="470" y="300" width="12" height="12" rx="3" fill="#22df69" opacity="0.6"/>
<rect x="492" y="300" width="12" height="12" rx="3" fill="#22df69" opacity="0.6"/>
<rect x="514" y="300" width="12" height="12" rx="3" fill="#22df69" opacity="0.6"/>
<text x="88" y="314" font-family="IBM Plex Mono, monospace" font-size="12" fill="#5b6458">left dodge rate: 21%</text>
<text x="260" y="314" font-family="IBM Plex Mono, monospace" font-size="12" fill="#5b6458">right dodge rate: 79%</text>
</svg>